<svg xmlns="http://www.w3.org/2000/svg" xmlns:xlink="http://www.w3.org/1999/xlink" viewBox="0 0 75 75" version="1.1" x="0px" y="0px"><g><path style="" d="M 40.773438 9.488281 C 55.300781 9.488281 64.59375 19.4375 64.59375 33.441406 C 64.59375 45.617188 56.21875 51.636719 49.015625 51.636719 C 45.15625 51.636719 41.949219 49.804688 41.164062 46.660156 L 41.035156 46.660156 C 39.332031 49.28125 35.796875 50.984375 33.179688 50.984375 C 27.8125 50.984375 24.28125 46.921875 24.28125 40.902344 C 24.28125 32.527344 30.300781 24.542969 37.761719 24.542969 C 39.855469 24.542969 41.554688 25.457031 42.605469 27.8125 L 42.734375 27.8125 L 43.78125 25.066406 L 50.589844 25.066406 L 47.445312 39.988281 C 46.660156 43.257812 47.578125 44.832031 50.195312 44.832031 C 54.125 44.832031 57.65625 40.382812 57.65625 33.703125 C 57.65625 24.804688 53.074219 16.164062 39.855469 16.164062 C 28.859375 16.164062 17.863281 25.589844 17.863281 40.121094 C 17.863281 53.078125 27.027344 58.835938 36.84375 58.835938 C 39.984375 58.835938 43.910156 57.789062 46.527344 56.480469 L 48.886719 62.5 C 44.828125 64.59375 40.640625 65.511719 35.929688 65.511719 C 22.707031 65.511719 10.40625 57.65625 10.40625 40.382812 C 10.40625 21.792969 24.148438 9.488281 40.773438 9.488281 Z M 35.667969 44.042969 C 36.84375 44.042969 37.890625 43.390625 39.332031 41.429688 L 40.773438 33.179688 C 40.3125 32.265625 39.332031 31.609375 38.152344 31.609375 C 34.75 31.609375 32.65625 36.71875 32.65625 40.25 C 32.65625 42.671875 33.703125 44.042969 35.667969 44.042969 Z M 35.667969 44.042969 " stroke="none" fill-rule="nonzero" fill="#FFFFFF" fill-opacity="1"/></g></svg>