<svg xmlns="http://www.w3.org/2000/svg" data-name="Layer 1" viewBox="0 0 100 100" x="0px" y="0px"><defs></defs><circle fill="#FFFFFF" cx="17.78" cy="82.22" r="16.78"/><path fill="#FFFFFF" d="M90.61,99a8.39,8.39,0,0,1-8.39-8.39c0-44.93-27.91-72.83-72.83-72.83A8.39,8.39,0,0,1,9.39,1c26.53,0,49,8.48,65.08,24.53S99,64.09,99,90.61A8.39,8.39,0,0,1,90.61,99Z"/><path fill="#FFFFFF" d="M58.85,99a8.39,8.39,0,0,1-8.39-8.39c0-27.25-13.82-41.07-41.07-41.07a8.39,8.39,0,0,1,0-16.78c36.76,0,57.85,21.08,57.85,57.84A8.39,8.39,0,0,1,58.85,99Z"/></svg>