<svg xmlns="http://www.w3.org/2000/svg" xmlns:xlink="http://www.w3.org/1999/xlink" version="1.1" viewBox="0 0 24 24" x="0px" y="0px"><path fill="#FFFFFF" d="M21.5 14h-0.5v-3h0.5c0.828 0 1.5 0.672 1.5 1.5s-0.672 1.5-1.5 1.5zM21.5 9h-0.5v-3h0.5c0.828 0 1.5 0.672 1.5 1.5s-0.672 1.5-1.5 1.5zM18.5 22h-11.5c-1.657 0-3-1.343-3-3v-14c0-1.657 1.343-3 3-3h11.5c0.828 0 1.5 0.672 1.5 1.5v2c0-0.828-0.672-1.5-1.5-1.5h-11.5c-0.552 0-1 0.448-1 1s0.448 1 1 1h11.5c0.828 0 1.5 0.672 1.5 1.5v13c0 0.828-0.672 1.5-1.5 1.5zM16 16.333c-0.028-0.444-0.294-0.82-0.671-1.004l-2.262-1.131-0.264-0.791c0.368-0.226 0.626-0.601 0.688-1.040l0.158-1.308c0.027-0.114 0.043-0.245 0.043-0.379 0-0.935-0.758-1.693-1.693-1.693s-1.693 0.758-1.693 1.693c0 0.134 0.016 0.265 0.045 0.391l0.158 1.289c0.064 0.446 0.321 0.822 0.684 1.044l-0.257 0.795c-0.819 0.41-1.869 0.936-2.243 1.122-0.377 0.2-0.641 0.571-0.689 1.007l-0.001 0.673h8v-0.667zM23 17.5c0 0.828-0.672 1.5-1.5 1.5h-0.5v-3h0.5c0.828 0 1.5 0.672 1.5 1.5z"/></svg>